<svg width="274" height="151" viewBox="0 0 274 151" fill="none" xmlns="http://www.w3.org/2000/svg">
<path d="M117.763 109.275C117.547 109.915 112.2 125.355 85.5299 125.355C78.7975 125.355 71.2208 124.35 62.9947 122.363C47.0187 118.503 33.0993 116.538 21.5827 116.538C10.6939 116.538 3.93988 118.32 0 119.987C18.2923 77.9387 63.9472 74.5583 77.91 74.5583C80.8324 74.5583 82.5209 74.6954 82.5642 74.6954C83.0405 74.7411 83.5167 74.5583 83.8847 74.2157C84.2311 73.8731 84.4475 73.3707 84.4475 72.8682C84.4475 53.4541 99.3844 37.6716 117.72 37.6716C118.846 37.6716 119.993 37.7629 121.14 37.9C132.029 39.8414 139.498 50.6447 137.852 62.2247C136.835 69.3279 130.514 74.2157 123.781 73.1651C121.855 72.8682 120.166 71.7719 119.019 70.1274C117.872 68.4829 117.395 66.4501 117.677 64.4173C117.828 63.4124 117.157 62.4759 116.226 62.3389C115.274 62.179 114.386 62.887 114.256 63.8692C113.823 66.8612 114.538 69.8533 116.226 72.2972C117.936 74.7411 120.426 76.317 123.283 76.7738C124.084 76.9109 124.864 76.9566 125.665 76.9566C133.371 76.9566 140.125 71.0181 141.316 62.7272C143.113 50.1194 135.666 38.2883 124.344 34.8851C125.232 32.3955 126.574 30.1343 128.371 28.2386C131.704 24.7212 136.164 22.757 140.883 22.757C144.606 22.757 148.157 23.9675 151.166 26.2287C151.599 26.5713 152.183 26.6627 152.703 26.4799C153.222 26.2972 153.633 25.8861 153.828 25.3379C154.001 24.8126 154.196 24.0132 154.434 22.9854C156.015 16.2932 159.673 0.647766 177.121 0.647766C183.377 0.647766 189.395 3.43426 193.638 8.32204C195.63 10.6061 197.124 13.2327 198.119 16.042C198.249 16.3389 198.314 16.6587 198.423 16.9556C199.332 19.902 199.678 23.0768 199.418 26.2972C199.418 26.4114 199.462 26.5028 199.483 26.617C199.31 27.8732 199.007 29.1065 198.596 30.3399C196.929 35.2505 193.552 39.2019 189.092 41.4402C186.43 42.7878 183.421 42.9476 180.628 41.897C177.836 40.8464 175.606 38.7222 174.35 35.9129C173.614 34.2912 173.528 32.464 174.112 30.7739C174.675 29.0837 175.844 27.7361 177.381 26.9596C178.247 26.5256 178.615 25.4293 178.204 24.5157C177.792 23.6021 176.753 23.2138 175.887 23.6477C173.506 24.8354 171.709 26.9367 170.843 29.5405C169.956 32.1443 170.107 34.9764 171.233 37.466C172.9 41.1661 175.822 43.9754 179.481 45.3458C181.083 45.9397 182.728 46.2366 184.373 46.2366C186.495 46.2366 188.616 45.7341 190.608 44.752C195.911 42.1026 199.938 37.4203 201.908 31.5733C202.341 30.2942 202.644 29.0152 202.86 27.7133C205.025 26.754 207.32 26.2287 209.701 26.2287C214.961 26.2287 219.875 28.6269 223.187 32.8066C226.218 36.6209 227.582 41.5772 227.171 46.9903C226.889 55.1442 220.395 61.471 212.688 61.3339C208.51 61.1969 205.22 57.5196 205.328 53.1115C205.35 52.1065 204.592 51.2614 203.64 51.2158C202.709 51.2614 201.886 51.9923 201.843 52.9973C201.67 59.4154 206.475 64.8056 212.58 65.0112C212.753 65.0112 212.926 65.0112 213.1 65.0112C221.044 65.0112 227.798 59.3468 229.92 51.5812C230.959 51.5812 232.583 51.6269 234.985 51.6269C255.984 51.6269 273.064 69.6477 273.064 91.8026C273.064 113.958 255.984 131.978 234.985 131.978C228.578 131.978 222.257 130.22 216.671 126.999C216.477 126.885 216.26 126.771 216.065 126.634C215.957 126.565 215.871 126.497 215.762 126.451C206.389 120.079 202.189 107.425 206.324 96.0281C209.203 88.1025 217.646 84.1055 225.157 87.1432C227.3 88.0111 228.989 89.7013 229.92 91.9168C230.851 94.1323 230.916 96.5762 230.093 98.8374C229.638 100.094 228.751 101.099 227.582 101.647C226.413 102.195 225.114 102.241 223.923 101.761C223.014 101.395 222.018 101.875 221.672 102.812C221.326 103.748 221.78 104.821 222.668 105.187C224.724 106.032 226.976 105.963 228.989 105.004C231.002 104.045 232.539 102.332 233.34 100.162C234.488 96.9873 234.401 93.5385 233.08 90.4322C231.76 87.3259 229.379 84.9506 226.37 83.7401C221.867 81.9129 216.953 82.0727 212.558 84.1512C208.164 86.2296 204.787 89.9982 203.055 94.749C200.414 102.012 200.631 109.915 203.64 116.995C204.787 119.69 206.259 122.134 208.056 124.281C199.873 140.246 184.243 150.136 167.033 150.136C145.321 150.136 126.725 134.422 121.746 112.382C120.469 105.507 121.746 98.5176 125.383 92.6477C129.085 86.6636 134.778 82.5524 141.403 81.0678C145.71 80.1085 150.127 80.9764 153.807 83.5117C157.508 86.0469 160.041 89.9526 160.95 94.4977C161.535 97.3984 161.015 100.368 159.478 102.857C157.941 105.347 155.582 107.037 152.833 107.654C151.122 108.042 149.391 107.676 147.94 106.694C146.49 105.689 145.472 104.159 145.126 102.355C144.693 100.185 146.013 98.038 148.07 97.5812C149.001 97.3756 149.607 96.3935 149.412 95.4114C149.217 94.4064 148.287 93.7669 147.356 93.9952C143.416 94.8632 140.905 98.9516 141.727 103.108C142.268 105.872 143.805 108.225 146.057 109.778C148.287 111.331 150.971 111.833 153.569 111.262C157.227 110.44 160.366 108.179 162.422 104.867C164.457 101.555 165.172 97.604 164.392 93.744C163.288 88.2396 160.236 83.5117 155.755 80.4283C151.296 77.3448 145.949 76.2942 140.731 77.459C133.198 79.1264 126.725 83.8086 122.504 90.6149C119.062 96.1879 117.504 102.652 117.915 109.161C117.915 109.207 117.85 109.23 117.828 109.275H117.763Z" fill="#F6F1D4"/>
</svg>
