<svg width="323" height="138" viewBox="0 0 323 138" fill="none" xmlns="http://www.w3.org/2000/svg">
<path d="M54.1091 64.7966C89.1025 51.0172 104.251 62.0737 106.563 64.0359C106.274 76.7392 113.539 88.139 124.816 91.6151C125.702 91.8848 126.595 92.0863 127.476 92.1945C135.11 93.1312 142.523 88.1545 144.761 80.1053C146.329 74.3881 143.2 68.3706 137.783 66.6943C136.965 66.4099 136.08 66.9221 135.83 67.8112C135.579 68.7002 136.067 69.6109 136.888 69.8726C140.638 71.0456 142.815 75.2216 141.725 79.1808C139.708 86.4064 132.516 90.5596 125.69 88.4342C114.583 85.0018 107.874 72.7046 110.1 59.8252C110.259 58.971 110.44 58.1194 110.691 57.2304C115.57 38.4681 132.091 26.1931 150.376 27.3791C149.237 31.5852 148.957 35.8968 149.546 40.2459C151.079 51.4482 159.699 60.0479 169.569 61.259C171.311 61.4728 173.077 61.4596 174.874 61.1742C182.836 59.9208 188.36 52.1139 187.193 43.7158C186.819 40.9796 185.471 38.5837 183.387 36.9254C181.303 35.2671 178.72 34.5822 176.126 34.9768C174.354 35.2421 172.764 36.2198 171.681 37.7424C170.598 39.2651 170.151 41.1418 170.403 43.0122C170.52 43.9233 171.323 44.5507 172.187 44.4267C173.05 44.3027 173.645 43.4559 173.527 42.5447C173.398 41.5402 173.64 40.5351 174.21 39.7084C174.778 38.9043 175.622 38.364 176.575 38.2279C178.347 37.9626 180.105 38.4311 181.507 39.546C182.91 40.6609 183.842 42.2928 184.096 44.1405C185.006 50.7135 180.668 56.8495 174.436 57.8323C164.218 59.3838 154.237 51.0768 152.678 39.7105C151.874 33.9553 152.805 28.275 155.406 22.8686C160.655 13.0046 169.544 5.5185 179.746 2.3325C180.043 2.20799 180.177 2.17844 180.311 2.1489C180.311 2.1489 180.581 2.06713 180.648 2.05236C185.759 0.56409 191.057 0.15636 196.411 0.813364C205.313 1.90573 213.457 5.91734 219.998 12.4224C220.252 12.6836 220.565 12.8139 220.888 12.8535C220.974 12.864 221.06 12.8746 221.146 12.8852C221.583 12.8699 221.976 12.6652 222.255 12.3085C229.197 3.8938 239.605 -0.370636 250.12 0.919625C258.635 1.9645 266.337 6.63459 271.633 13.7459C264.77 15.7089 258.464 19.534 253.377 24.9572C248.439 30.2147 245.73 37.1944 245.761 44.6253C245.793 52.0561 248.556 59.0175 253.539 64.2278C255.965 66.733 258.984 68.414 262.263 69.1153C262.731 69.2187 263.201 69.2994 263.674 69.3575C268.9 69.9987 274.123 68.0872 277.85 64.1297C282.247 59.4267 282.217 51.789 277.786 47.1063C274.715 43.9242 269.788 43.9405 266.777 47.1351C266.16 47.7951 266.176 48.8319 266.78 49.4809C267.406 50.1325 268.388 50.1151 269.003 49.4777C270.806 47.5604 273.746 47.5763 275.566 49.4552C278.767 52.8373 278.788 58.3814 275.602 61.7844C272.272 65.3077 267.526 66.8409 262.881 65.88C260.177 65.2953 257.715 63.9124 255.738 61.8763C251.361 57.2923 248.921 51.1524 248.9 44.6195C248.879 38.0867 251.257 31.94 255.604 27.2998C262.072 20.4136 270.658 16.2705 279.796 15.6212C279.796 15.6212 279.796 15.6212 279.817 15.6238C281.825 15.5943 283.668 15.6825 285.431 15.8988C308.461 18.7247 325.01 40.8062 322.329 65.1269C321.104 76.2437 315.978 86.3758 307.896 93.6619C307.605 93.9252 307.41 94.3151 307.365 94.7234C307.357 94.7915 307.327 95.0637 307.344 95.1118C306.364 104.005 298.707 110.401 290.278 109.366C288.428 109.139 286.729 108.54 285.122 107.699C285.841 102.958 285.616 98.0791 284.355 93.3026C282.049 84.5579 276.636 77.3173 269.13 72.8551C266.939 71.5746 264.596 70.6892 262.14 70.2269C252.907 68.3811 243.499 73.0672 238.855 81.7869C234.655 89.6413 237.298 99.6692 244.783 104.129C247.36 105.664 250.328 106.028 253.164 105.203C256.004 104.356 258.354 102.414 259.806 99.7177C261.948 95.7037 260.574 90.5684 256.775 88.2627C256.041 87.8047 255.052 88.0743 254.637 88.8741C254.2 89.6713 254.458 90.6918 255.217 91.1297C257.526 92.5168 258.36 95.6313 257.067 98.071C256.049 99.9925 254.347 101.393 252.319 101.995C250.292 102.597 248.165 102.313 246.342 101.262C240.389 97.7261 238.264 89.7163 241.613 83.4589C245.598 75.9691 253.667 71.9694 261.601 73.5408C263.715 73.9382 265.724 74.6906 267.607 75.7955C274.358 79.797 279.237 86.3512 281.331 94.2422C283.406 102.108 282.477 110.341 278.663 117.461C278.658 117.506 278.656 117.529 278.651 117.574C271.042 131.242 256.535 138.889 241.655 137.063C231.979 135.876 223.311 130.88 217.073 123.01C223.262 116.687 225.832 107.207 223.54 98.3488C222.361 93.8123 219.595 90.0467 215.73 87.7331C211.888 85.422 207.418 84.8505 203.161 86.0987C200.124 86.9676 197.606 89.05 196.045 91.9397C194.508 94.8094 194.119 98.1418 194.945 101.324C195.544 103.605 196.945 105.525 198.907 106.708C200.869 107.892 203.146 108.194 205.329 107.565C206.162 107.322 206.654 106.417 206.426 105.515C206.196 104.636 205.338 104.117 204.484 104.357C203.112 104.741 201.693 104.567 200.468 103.818C199.243 103.07 198.371 101.883 197.986 100.433C197.371 98.1039 197.66 95.679 198.786 93.5638C199.913 91.4486 201.78 89.9302 204.006 89.3066C207.451 88.3037 211.083 88.7723 214.189 90.648C217.316 92.5264 219.573 95.5856 220.521 99.243C222.598 107.293 220.096 115.953 214.153 121.433C214.083 121.47 214.016 121.485 213.968 121.525C211.494 123.406 208.888 124.903 206.22 125.978C206.177 125.973 206.172 126.018 206.127 126.035C206.062 126.027 205.998 126.019 205.928 126.057C201.145 127.93 196.129 128.557 191.076 127.936C179.335 126.496 169.243 118.405 164.723 106.813C164.402 105.969 163.488 105.558 162.664 105.917C156.647 108.513 150.046 109.473 143.574 108.679C142.972 108.605 142.373 108.9 142.05 109.458C141.705 110.013 133.417 123.322 107.485 120.14C81.5526 116.957 75.6497 102.69 75.5787 102.543C75.2782 101.908 74.6416 101.554 73.979 101.634C73.5365 101.694 32.1447 106.296 0.919878 67.8813C9.87356 71.6703 27.4433 75.3898 54.1232 64.8673L54.1091 64.7966Z" fill="#F6F1D4"/>
</svg>
