<svg width="397" height="219" viewBox="0 0 397 219" fill="none" xmlns="http://www.w3.org/2000/svg">
<path d="M171.213 158.679C170.898 159.609 163.124 182.061 124.35 182.061C114.562 182.061 103.546 180.6 91.5863 177.71C68.3593 172.097 48.1222 169.241 31.3785 169.241C15.5476 169.241 5.72808 171.832 0 174.256C26.5947 113.111 92.9711 108.196 113.271 108.196C117.52 108.196 119.975 108.395 120.038 108.395C120.73 108.462 121.423 108.196 121.958 107.698C122.461 107.2 122.776 106.469 122.776 105.738C122.776 77.5073 144.492 54.5573 171.15 54.5573C172.787 54.5573 174.455 54.6902 176.123 54.8894C191.954 57.7125 202.812 73.4221 200.42 90.261C198.941 100.59 189.751 107.698 179.962 106.17C177.161 105.738 174.706 104.144 173.038 101.753C171.37 99.3613 170.678 96.4054 171.087 93.4495C171.307 91.9881 170.332 90.6264 168.978 90.4271C167.594 90.1946 166.303 91.2242 166.114 92.6523C165.485 97.0032 166.523 101.354 168.978 104.908C171.465 108.462 175.084 110.753 179.239 111.418C180.403 111.617 181.536 111.683 182.701 111.683C193.905 111.683 203.725 103.048 205.456 90.9917C208.068 72.6582 197.241 55.4541 180.781 50.5054C182.071 46.8852 184.022 43.5971 186.635 40.8404C191.482 35.7257 197.965 32.8694 204.826 32.8694C210.239 32.8694 215.401 34.6297 219.776 37.9177C220.405 38.4159 221.255 38.5488 222.01 38.2831C222.766 38.0174 223.364 37.4195 223.647 36.6224C223.899 35.8585 224.182 34.6961 224.528 33.2015C226.826 23.4702 232.145 0.719421 257.512 0.719421C266.608 0.719421 275.357 4.77138 281.526 11.8789C284.421 15.2002 286.593 19.0197 288.041 23.1048C288.229 23.5366 288.324 24.0016 288.481 24.4333C289.803 28.7178 290.307 33.3344 289.929 38.0174C289.929 38.1834 289.992 38.3163 290.023 38.4823C289.772 40.309 289.331 42.1025 288.733 43.896C286.31 51.0367 281.4 56.7826 274.916 60.0374C271.045 61.997 266.67 62.2295 262.61 60.7017C258.55 59.1739 255.309 56.0851 253.483 51.9999C252.413 49.6418 252.287 46.9848 253.137 44.5271C253.955 42.0693 255.655 40.1098 257.889 38.9805C259.148 38.3495 259.683 36.7553 259.085 35.4268C258.487 34.0983 256.977 33.5336 255.718 34.1647C252.256 35.8917 249.644 38.9473 248.385 42.7336C247.094 46.5198 247.315 50.6382 248.951 54.2584C251.375 59.6389 255.623 63.724 260.942 65.7168C263.271 66.5803 265.663 67.0121 268.055 67.0121C271.14 67.0121 274.224 66.2814 277.119 64.8533C284.83 61.0006 290.684 54.192 293.548 45.6895C294.178 43.8296 294.618 41.9697 294.933 40.0766C298.08 38.6816 301.417 37.9177 304.879 37.9177C312.527 37.9177 319.671 41.4051 324.486 47.483C328.892 53.0295 330.875 60.2367 330.277 68.1081C329.868 79.9651 320.426 89.165 309.222 88.9657C303.148 88.7664 298.364 83.4192 298.521 77.0091C298.553 75.5478 297.451 74.3189 296.066 74.2525C294.713 74.3189 293.517 75.3817 293.454 76.8431C293.202 86.1759 300.189 94.0141 309.065 94.313C309.316 94.313 309.568 94.313 309.82 94.313C321.37 94.313 331.19 86.0762 334.274 74.7839C335.785 74.7839 338.146 74.8503 341.639 74.8503C372.168 74.8503 397 101.055 397 133.272C397 165.488 372.168 191.693 341.639 191.693C332.323 191.693 323.133 189.135 315.013 184.452C314.73 184.286 314.415 184.12 314.132 183.921C313.974 183.821 313.848 183.722 313.691 183.655C300.063 174.389 293.957 155.989 299.969 139.416C304.155 127.891 316.429 122.079 327.35 126.496C330.466 127.758 332.921 130.216 334.274 133.438C335.628 136.659 335.722 140.213 334.526 143.501C333.865 145.328 332.575 146.789 330.875 147.586C329.176 148.383 327.287 148.45 325.556 147.752C324.234 147.221 322.787 147.918 322.283 149.28C321.78 150.642 322.441 152.203 323.731 152.734C326.721 153.963 329.994 153.863 332.921 152.469C335.848 151.074 338.083 148.583 339.247 145.427C340.915 140.811 340.789 135.796 338.869 131.279C336.95 126.762 333.488 123.308 329.113 121.547C322.566 118.89 315.422 119.123 309.033 122.145C302.644 125.168 297.734 130.648 295.216 137.556C291.377 148.118 291.691 159.609 296.066 169.905C297.734 173.824 299.874 177.378 302.487 180.5C290.59 203.716 267.866 218.097 242.845 218.097C211.278 218.097 184.243 195.247 177.004 163.196C175.147 153.199 177.004 143.036 182.291 134.5C187.673 125.799 195.951 119.82 205.581 117.662C211.845 116.267 218.265 117.529 223.615 121.215C228.997 124.902 232.68 130.581 234.001 137.191C234.851 141.409 234.096 145.726 231.861 149.346C229.627 152.967 226.196 155.424 222.199 156.321C219.713 156.886 217.195 156.354 215.086 154.926C212.978 153.465 211.498 151.24 210.995 148.616C210.365 145.461 212.285 142.339 215.275 141.674C216.628 141.375 217.51 139.947 217.226 138.519C216.943 137.058 215.59 136.128 214.236 136.46C208.508 137.722 204.858 143.667 206.054 149.712C206.84 153.731 209.075 157.151 212.348 159.41C215.59 161.668 219.492 162.399 223.269 161.569C228.588 160.373 233.152 157.085 236.142 152.269C239.1 147.453 240.139 141.708 239.006 136.095C237.401 128.09 232.963 121.215 226.448 116.732C219.965 112.248 212.191 110.72 204.606 112.414C193.653 114.838 184.243 121.647 178.106 131.544C173.101 139.648 170.835 149.048 171.433 158.513C171.433 158.58 171.339 158.613 171.307 158.679H171.213Z" fill="#F6F1D4"/>
</svg>
