<svg width="288" height="183" viewBox="0 0 288 183" fill="none" xmlns="http://www.w3.org/2000/svg">
<path d="M262.37 165.059C254.035 166.178 245.679 163.437 239.445 157.499C239.012 157.087 238.406 156.973 237.865 157.179C237.323 157.384 236.934 157.887 236.847 158.503C235.115 170.609 216.607 180.453 204.094 182.166C164.695 187.51 153.482 164.876 153.027 163.917C152.811 163.46 152.4 163.117 151.923 163.026C151.447 162.934 150.949 163.072 150.581 163.414C146.252 167.457 140.948 169.992 135.255 170.746C127.635 171.796 120.101 169.649 114.04 164.716C107.957 159.783 104.082 152.634 103.086 144.571C103.021 144.023 102.697 143.543 102.22 143.292C101.744 143.041 101.181 143.064 100.727 143.36C98.367 144.822 44.2045 177.415 0 116.615C11.0403 122.553 34.3765 132.077 54.7036 120.338C81.3519 105.012 91.1583 106.611 91.2665 106.634C91.7644 106.725 92.284 106.565 92.6304 106.2C92.9984 105.834 93.1716 105.309 93.1066 104.784C91.6779 93.2036 97.2413 82.0348 106.983 76.5989C113.196 91.0567 126.92 100.787 142.636 100.787C143.113 100.787 143.589 100.787 144.065 100.764C159.175 100.193 171.038 86.7627 170.497 70.8203C170.129 59.583 161.21 50.7439 150.495 51.0865C142.896 51.3834 136.921 58.1441 137.181 66.1609C137.268 68.9703 138.394 71.5969 140.342 73.5154C142.29 75.434 144.845 76.4161 147.486 76.3476C148.351 76.3248 149.044 75.5482 149.001 74.6346C148.979 73.721 148.222 73.0358 147.377 73.0358C145.537 73.1043 143.827 72.4191 142.485 71.1172C141.143 69.7925 140.385 68.011 140.32 66.0924C140.125 59.9027 144.736 54.6952 150.603 54.4668C159.5 54.1242 167.033 61.5701 167.358 71.003C167.834 85.1182 157.335 97.0179 143.957 97.4976C125.318 98.1599 109.407 84.0447 106.939 64.6078C106.81 63.6028 106.723 62.5294 106.658 61.4787C105.099 31.2384 126.163 4.53833 154.629 0.678357C169.22 -1.33157 183.702 2.80249 195.37 12.304C221.196 33.3169 214.55 57.8015 217.126 61.1133C213.684 66.3893 212.407 73.1957 214.139 79.728C216 86.6485 221.997 91.1708 228.513 91.1708C229.855 91.1708 231.219 90.9881 232.583 90.577C235.332 89.7548 237.626 87.8362 239.012 85.1867C240.419 82.5373 240.744 79.4996 239.964 76.5989C239.402 74.4519 238.059 72.6704 236.198 71.5969C234.358 70.5234 232.236 70.2722 230.223 70.8888C229.379 71.1401 228.902 72.0765 229.162 72.9444C229.4 73.8124 230.266 74.3149 231.11 74.0636C232.323 73.6982 233.578 73.8352 234.682 74.4976C235.786 75.1371 236.587 76.2106 236.934 77.5125C237.497 79.5681 237.258 81.715 236.263 83.5879C235.267 85.4608 233.665 86.8084 231.717 87.4022C225.46 89.2523 218.944 85.438 217.169 78.8372C214.788 69.8382 219.074 60.2453 227.171 56.5224C227.214 56.5224 227.257 56.4767 227.3 56.4767C227.669 56.294 228.015 56.1341 228.34 56.0199L228.469 55.9742C228.794 55.86 229.097 55.7458 229.4 55.6545C229.4 55.6545 229.422 55.6545 229.444 55.6316C229.444 55.6316 229.487 55.6316 229.509 55.6316C231.349 55.015 233.145 54.581 235.007 54.3298C243.363 53.2106 251.611 55.5631 258.257 60.9762C264.924 66.4122 269.167 74.2463 270.249 83.0398C271.115 90.0517 269.86 97.0408 266.613 103.253C262.088 102.5 257.564 103.071 253.711 104.989C245.571 109.1 242.107 119.424 245.982 128.012C247.996 132.466 252.239 135.07 256.633 135.07C258.322 135.07 260.032 134.681 261.634 133.882C265.877 131.712 267.695 126.322 265.682 121.845C264.145 118.488 260.313 117.049 257.174 118.625C256.395 119.013 256.049 120.018 256.438 120.84C256.806 121.662 257.737 122.028 258.538 121.64C260.14 120.817 262.088 121.571 262.868 123.284C264.145 126.116 262.976 129.519 260.292 130.89C256.027 133.014 250.875 131.095 248.84 126.596C245.701 119.652 248.515 111.316 255.096 108.004C260.292 105.4 266.959 105.697 272.912 108.803C272.934 108.803 272.955 108.803 272.977 108.849C280.835 113.623 286.031 121.777 287.178 131.255C289.213 147.837 278.086 163.049 262.391 165.196L262.37 165.059Z" fill="#F6F1D4"/>
</svg>
